<svg width="20" height="25" viewBox="0 0 20 25" fill="none" xmlns="http://www.w3.org/2000/svg">
<path fill-rule="evenodd" clip-rule="evenodd" d="M17.1409 8.41976H9.9133C10.3796 7.99223 10.6905 7.40923 10.6905 6.82623C10.6905 5.60194 9.69958 4.63028 8.47555 4.63028C7.29038 4.63028 6.2995 5.60194 6.2995 6.82623C6.2995 7.00113 6.45493 7.1566 6.62979 7.1566C6.82408 7.1566 6.96009 7.00113 6.96009 6.82623C6.96009 5.97117 7.65953 5.29101 8.47555 5.29101C9.33043 5.29101 10.0299 5.97117 10.0299 6.82623C10.0299 7.623 9.15557 8.41976 8.28126 8.41976H2.91885C2.14169 8.41976 1.51996 7.79789 1.51996 7.04C1.51996 6.26267 2.14169 5.64081 2.91885 5.64081C3.152 5.64081 3.36572 5.69911 3.56001 5.79627C3.69601 5.87401 3.8903 5.83514 3.98745 5.71854C4.08459 5.58251 4.06516 5.40761 3.96802 5.29101C3.65715 4.94121 3.48229 4.51368 3.48229 4.06672C3.48229 3.07563 4.29831 2.25943 5.28919 2.25943C6.08578 2.25943 6.76579 2.74526 7.01837 3.48372C7.05723 3.60032 7.13495 3.67806 7.25152 3.69749C7.3681 3.73636 7.5041 3.69749 7.56239 3.60032C7.83439 3.32826 8.20354 3.17279 8.57269 3.17279C9.23328 3.17279 9.77729 3.60032 9.93273 4.24162C9.97158 4.35822 10.0299 4.45538 10.1464 4.47482C10.263 4.53312 10.3796 4.49425 10.4573 4.41652C10.6905 4.26105 11.0013 4.16389 11.2928 4.16389C11.8368 4.16389 12.3419 4.47482 12.5556 4.96065C12.6139 5.09668 12.7694 5.17441 12.9054 5.13555C13.0608 5.11611 13.1774 4.99951 13.1774 4.84405C13.2551 3.91125 14.0517 3.17279 14.9843 3.17279C15.9946 3.17279 16.7912 3.96955 16.7912 4.98008C16.7912 5.05781 16.7912 5.13555 16.7717 5.25214C16.7717 5.34931 16.7912 5.44648 16.8495 5.52421C16.9272 5.60194 17.0049 5.64081 17.102 5.64081C17.1215 5.64081 17.1409 5.64081 17.1409 5.64081C17.8986 5.64081 18.5204 6.26267 18.5204 7.04C18.5204 7.79789 17.8986 8.41976 17.1409 8.41976ZM17.6655 9.08049L15.2368 23.5971H13.3717L15.3729 9.08049H17.6655ZM14.7123 9.08049L12.7111 23.5971H10.3796V9.08049H14.7123ZM9.71901 9.08049V23.5971H7.38752L5.36691 9.08049H9.71901ZM2.43312 9.08049H4.70632L6.70751 23.5971H4.84232L2.43312 9.08049ZM9.52472 0.918541C10.2242 0.918541 10.8459 1.32664 11.0985 1.92907C11.1373 2.02623 11.215 2.10397 11.3122 2.1234C11.4093 2.16227 11.5259 2.14283 11.6036 2.0651C11.9145 1.85133 12.2836 1.7153 12.6722 1.7153C13.3328 1.7153 13.9157 2.08453 14.1877 2.6481C13.5271 2.88129 12.9637 3.38656 12.7111 4.04729C12.3225 3.69749 11.8173 3.50316 11.2928 3.50316C11.0013 3.50316 10.7099 3.54202 10.4379 3.67806C10.1076 2.97846 9.38871 2.51206 8.57269 2.51206C8.32012 2.51206 8.08697 2.55093 7.85382 2.6481C7.85382 2.5898 7.85382 2.55093 7.85382 2.49263C7.85382 1.61814 8.59212 0.918541 9.52472 0.918541ZM19.2004 7.04C19.2004 6.01004 18.4426 5.15498 17.4712 4.99951V4.98008C17.4712 3.61976 16.3637 2.51206 14.9843 2.51206C14.9454 2.51206 14.9066 2.51206 14.8677 2.51206C14.518 1.63757 13.6437 1.07401 12.6722 1.07401C12.2642 1.07401 11.8756 1.15174 11.5259 1.32664C11.1179 0.665909 10.3602 0.257812 9.52472 0.257812C8.2424 0.257812 7.19323 1.22947 7.19323 2.4732C6.72694 1.92907 6.04692 1.57927 5.28919 1.57927C3.94859 1.57927 2.82171 2.7064 2.82171 4.06672C2.82171 4.37765 2.89942 4.68858 3.016 4.98008C2.97714 4.98008 2.93828 4.98008 2.91885 4.98008C1.77254 4.98008 0.859375 5.89344 0.859375 7.04C0.859375 7.72016 1.18967 8.32259 1.71425 8.69182C1.69482 8.73069 1.69482 8.76955 1.69482 8.80842L4.24002 23.9857C4.25945 24.1606 4.39546 24.2578 4.57032 24.2578H15.5283C15.6837 24.2578 15.8197 24.1606 15.8391 23.9857L18.3649 8.80842C18.3843 8.75012 18.3843 8.71125 18.3649 8.67239C18.8701 8.28372 19.2004 7.70073 19.2004 7.04Z" fill="white"/>
</svg>
