<svg width="18" height="18" viewBox="0 0 18 18" fill="none" xmlns="http://www.w3.org/2000/svg">
<path fill-rule="evenodd" clip-rule="evenodd" d="M5.87484 6.49935C5.87484 4.77346 7.27395 3.37435 8.99984 3.37435C10.7257 3.37435 12.1248 4.77346 12.1248 6.49935C12.1248 8.22524 10.7257 9.62435 8.99984 9.62435C7.27395 9.62435 5.87484 8.22524 5.87484 6.49935ZM8.99984 4.62435C7.9643 4.62435 7.12484 5.46382 7.12484 6.49935C7.12484 7.53488 7.9643 8.37435 8.99984 8.37435C10.0354 8.37435 10.8748 7.53488 10.8748 6.49935C10.8748 5.46382 10.0354 4.62435 8.99984 4.62435Z" fill="#F8FAFC"/>
<path fill-rule="evenodd" clip-rule="evenodd" d="M0.0415039 8.99935C0.0415039 4.0518 4.05229 0.0410156 8.99984 0.0410156C13.9474 0.0410156 17.9582 4.0518 17.9582 8.99935C17.9582 13.9469 13.9474 17.9577 8.99984 17.9577C4.05229 17.9577 0.0415039 13.9469 0.0415039 8.99935ZM8.99984 1.29102C4.74264 1.29102 1.2915 4.74215 1.2915 8.99935C1.2915 11.1207 2.14839 13.0418 3.53492 14.4356C3.68525 13.6247 3.98062 12.8601 4.57348 12.2453C5.46027 11.3256 6.87831 10.8743 8.9998 10.8743C11.1213 10.8743 12.5393 11.3256 13.4261 12.2453C14.019 12.8601 14.3144 13.6247 14.4647 14.4357C15.8513 13.0419 16.7082 11.1207 16.7082 8.99935C16.7082 4.74215 13.257 1.29102 8.99984 1.29102ZM13.3279 15.3788C13.243 14.3689 13.0237 13.6288 12.5263 13.1129C11.9851 12.5516 10.9823 12.1243 8.9998 12.1243C7.01733 12.1243 6.01451 12.5516 5.47329 13.1129C4.97589 13.6288 4.7566 14.3689 4.67169 15.3788C5.90554 16.2175 7.39545 16.7077 8.99984 16.7077C10.6042 16.7077 12.0941 16.2175 13.3279 15.3788Z" fill="#F8FAFC"/>
</svg>
